<svg 
 xmlns="http://www.w3.org/2000/svg"
 xmlns:xlink="http://www.w3.org/1999/xlink"
 width="48px" height="48px">
<defs>
<filter id="Filter_0">
    <feFlood flood-color="rgb(255, 255, 255)" flood-opacity="1" result="floodOut" />
    <feComposite operator="atop" in="floodOut" in2="SourceGraphic" result="compOut" />
    <feBlend mode="normal" in="compOut" in2="SourceGraphic" />
</filter>

</defs>
<g filter="url(#Filter_0)">
<path fill-rule="evenodd"  fill="rgb(0, 0, 0)"
 d="M43.285,47.451 L4.715,47.451 C2.489,47.451 0.682,45.609 0.682,43.339 L0.682,34.721 C0.682,32.452 2.489,30.610 4.715,30.610 L15.332,30.610 C15.792,30.610 16.159,30.974 16.210,31.432 C16.619,35.450 19.947,38.583 23.990,38.583 C28.043,38.583 31.371,35.450 31.769,31.432 C31.820,30.964 32.188,30.610 32.647,30.610 L32.647,30.620 L43.285,30.620 C45.511,30.620 47.318,32.462 47.318,34.731 L47.318,43.339 C47.318,45.609 45.511,47.451 43.285,47.451 ZM33.689,14.406 C32.545,15.187 30.993,14.937 30.023,13.948 L26.869,10.732 L26.869,27.695 C26.869,29.309 25.582,30.620 24.000,30.620 C22.418,30.620 21.131,29.309 21.131,27.695 L21.131,10.732 L17.977,13.948 C17.007,14.937 15.455,15.187 14.301,14.406 C12.739,13.345 12.586,11.169 13.842,9.889 L22.295,1.270 C23.234,0.313 24.755,0.313 25.695,1.270 L34.148,9.889 C35.404,11.169 35.250,13.345 33.689,14.406 Z"/>
</g>
</svg>