<svg 
 xmlns="http://www.w3.org/2000/svg"
 xmlns:xlink="http://www.w3.org/1999/xlink"
 width="49px" height="40px">
<defs>
<filter id="Filter_0">
    <feFlood flood-color="rgb(255, 255, 255)" flood-opacity="1" result="floodOut" />
    <feComposite operator="atop" in="floodOut" in2="SourceGraphic" result="compOut" />
    <feBlend mode="normal" in="compOut" in2="SourceGraphic" />
</filter>

</defs>
<g filter="url(#Filter_0)">
<path fill-rule="evenodd"  fill="rgb(0, 0, 0)"
 d="M45.983,40.000 L3.017,40.000 C1.351,40.000 -0.000,38.670 -0.000,37.029 L-0.000,8.745 C-0.000,7.104 1.351,5.774 3.017,5.774 L12.543,5.774 L18.177,0.509 C18.527,0.182 18.991,-0.000 19.474,-0.000 L29.525,-0.000 C30.008,-0.000 30.473,0.182 30.823,0.509 L36.456,5.774 L45.983,5.774 C47.648,5.774 49.000,7.104 49.000,8.745 L49.000,37.029 C49.000,38.670 47.648,40.000 45.983,40.000 ZM24.500,12.134 C18.469,12.134 13.580,16.949 13.580,22.887 C13.580,28.826 18.469,33.640 24.500,33.640 C30.531,33.640 35.420,28.826 35.420,22.887 C35.420,16.949 30.531,12.134 24.500,12.134 ZM24.500,29.692 C20.683,29.692 17.590,26.645 17.590,22.887 C17.590,19.129 20.683,16.083 24.500,16.083 C28.316,16.083 31.410,19.129 31.410,22.887 C31.410,26.645 28.316,29.692 24.500,29.692 Z"/>
</g>
</svg>