<svg 
 xmlns="http://www.w3.org/2000/svg"
 xmlns:xlink="http://www.w3.org/1999/xlink"
 width="16px" height="20px">
<path fill-rule="evenodd"  fill="rgb(0, 0, 0)"
 d="M14.420,16.502 C14.113,16.502 13.868,16.256 13.868,15.949 C13.868,15.642 14.113,15.396 14.420,15.396 C14.682,15.396 14.895,15.183 14.895,14.921 L14.895,1.581 C14.895,1.319 14.682,1.106 14.420,1.106 L5.131,1.106 C4.870,1.106 4.657,1.319 4.657,1.581 C4.657,1.888 4.411,2.134 4.104,2.134 C3.797,2.134 3.552,1.888 3.552,1.581 C3.552,0.709 4.260,-0.000 5.131,-0.000 L14.420,-0.000 C15.292,-0.000 16.000,0.709 16.000,1.581 L16.000,14.921 C16.000,15.794 15.292,16.502 14.420,16.502 ZM12.448,5.079 L12.448,18.419 C12.448,19.291 11.740,20.000 10.868,20.000 L1.580,20.000 C0.708,20.000 -0.000,19.291 -0.000,18.419 L-0.000,5.079 C-0.000,4.206 0.708,3.498 1.580,3.498 L10.868,3.498 C11.736,3.498 12.444,4.206 12.448,5.079 ZM1.575,4.604 C1.313,4.604 1.101,4.817 1.101,5.079 L1.101,18.415 C1.101,18.677 1.313,18.890 1.575,18.890 L10.864,18.890 C11.126,18.890 11.339,18.677 11.339,18.415 L11.339,5.079 C11.339,4.817 11.126,4.604 10.864,4.604 L1.575,4.604 Z"/>
</svg>